# xmcd
#
# Track frame offsets: 
#        150
#        20932
#        44577
#        68217
#        84826
#        101361
#        122978
#        146405
#        162384
#        178035
#        200643
#        224966
#        251657
#        275548
#        299595
#        318575
#        337063
#
# Disc length: 4670 seconds
#
# Revision: 0
# Processed by: cddbd v1.5.2PL0 Copyright (c) Steve Scherf et al.
# Submitted via: ExactAudioCopyFreeDBPlugin 1.0
#
DISCID=1d123c11
DTITLE=Julian Fauth - Everybody Ought To Treat A Stranger Right
DYEAR=2012
DGENRE=Blues
TTITLE0=Window Pane Blues
TTITLE1=Everybody Ought To Treat A Stranger Right
TTITLE2=I Hope My Pony Knows The Way Back Home
TTITLE3=Requiem
TTITLE4=Dimpled Nose
TTITLE5=Eyesight To The Blind
TTITLE6=Let It Heal
TTITLE7=If Your Mind
TTITLE8=Little Soldier
TTITLE9=Riff Raff
TTITLE10=Angelique
TTITLE11=Mean Old Train
TTITLE12=Decisions
TTITLE13=Roll And Tumble
TTITLE14=So Friggin' Happy
TTITLE15=Toothless, Bald and On Your Own
TTITLE16=The End Of The Day
EXTD=
EXTT0=
EXTT1=
EXTT2=
EXTT3=
EXTT4=
EXTT5=
EXTT6=
EXTT7=
EXTT8=
EXTT9=
EXTT10=
EXTT11=
EXTT12=
EXTT13=
EXTT14=
EXTT15=
EXTT16=
PLAYORDER=
